<svg width="625" height="166" viewBox="0 0 625 166" fill="none" xmlns="http://www.w3.org/2000/svg">
<g clip-path="url(#clip0_412_2490)">
<mask id="mask0_412_2490" style="mask-type:luminance" maskUnits="userSpaceOnUse" x="0" y="0" width="625" height="166">
<path d="M625 0H0V166H625V0Z" fill="white"/>
</mask>
<g mask="url(#mask0_412_2490)">
<mask id="mask1_412_2490" style="mask-type:luminance" maskUnits="userSpaceOnUse" x="0" y="0" width="625" height="166">
<path d="M625 0H0V166H625V0Z" fill="white"/>
</mask>
<g mask="url(#mask1_412_2490)">
<path d="M172.983 36.171C168.764 29.1249 161.213 22.771 150.879 16.0444C150.277 15.6539 149.656 15.2457 149.071 14.873C112.362 -8.51928 100.592 0.283886 90.6126 10.2052C90.6126 10.2052 90.6126 10.2229 90.5771 10.2229C90.5771 10.2229 90.5594 10.2229 90.5417 10.2052C81.679 19.8603 70.5651 37.4844 65.8324 60.0247C65.3715 62.3852 69.4484 46.5183 90.5771 46.5183C118.371 46.5183 132.498 87.7298 89.1414 165.609C89.1414 165.609 89.1414 165.592 89.1414 165.574V165.982C89.8858 165.254 90.5594 164.616 91.1443 164.012C93.3778 161.829 96.2316 158.776 96.657 158.262C97.2596 157.64 97.88 157.019 98.5004 156.398C98.6954 156.221 98.8727 156.025 99.0499 155.848C114.453 140.247 127.34 126.705 137.922 114.832C173.993 74.3476 183.175 53.2094 172.947 36.1532" fill="#AE0F0A"/>
<path d="M87.5463 165.858V165.964C86.7841 165.237 77.9923 156.043 77.7973 155.848C62.3939 140.265 49.5075 126.723 38.9254 114.832C2.87177 74.3654 -6.31002 53.2271 3.91757 36.171C8.13624 29.1249 15.6873 22.771 26.0212 16.0444C26.6416 15.6539 27.2443 15.2635 27.847 14.873C64.521 -8.51928 76.2907 0.283886 86.2701 10.2052C75.1562 22.2918 60.5327 46.9087 59.3274 78.0215L59.4337 78.27C58.3525 95.3616 63.7056 119.322 78.9495 150.062C80.5271 153.257 86.7664 164.207 87.5463 165.592V165.876V165.858Z" fill="#004994"/>
<path d="M197.462 85.6179H185.231V95.4505H195.388V98.3789H185.231V112.631H181.402V82.6539H198.064L197.462 85.6179Z" fill="#004994"/>
<path d="M210.011 85.7953L205.03 100.473H214.868L210.029 85.7953H210.011ZM218.839 112.613L215.843 103.384H204.038L200.989 112.613H197.16L207.725 82.6361H212.652L223.128 112.613H218.839Z" fill="#004994"/>
<path d="M236.05 96.7105L248.688 112.613H243.849L231.76 96.746L243.938 82.6361H248.777L236.032 96.7105H236.05ZM227.737 82.6539H231.565V112.631H227.737V82.6539Z" fill="#004994"/>
<path d="M271.536 110.838C269.604 112.418 267.052 113.146 263.223 113.146C258.331 113.146 255.566 111.797 253.864 108.815C253.031 107.377 252.942 105.443 252.942 104.147V82.6539H256.682V102.834C256.682 104.325 256.824 106.241 257.232 107.164C257.835 108.478 259.536 110.093 263.418 110.093C266.042 110.093 268.027 109.436 269.002 108.212C270.065 106.863 270.207 105.549 270.207 103.544V82.6539H273.947V103.97C273.947 107.59 273.433 109.294 271.554 110.821" fill="#004994"/>
<path d="M298.018 112.613H282.243V82.6539H286.018V109.614H298.532L298.018 112.613Z" fill="#004994"/>
<path d="M317.162 85.6711H308.583V112.613H304.931V85.6711H296.441V82.6539H317.392L317.162 85.6711Z" fill="#004994"/>
<path d="M337.936 112.613L327.779 94.2613C325.741 90.6406 324.181 87.0554 324.181 87.0554C324.181 87.0554 324.553 91.3328 324.589 95.2197L324.766 112.613H320.849V82.6361H325.227L335.756 101.769C337.422 104.751 338.716 108.069 338.716 108.069C338.716 108.069 338.344 103.26 338.308 98.9468L338.166 82.6539H341.907V112.631H337.936V112.613Z" fill="#004994"/>
<path d="M350.432 82.6539H354.119V112.631H350.432V82.6539ZM350.344 80.9501L349.138 78.8913L358.693 73.2118L360.678 76.5662L350.344 80.9323V80.9501Z" fill="#004994"/>
<path d="M390.581 112.613L380.424 94.2613C378.385 90.6406 376.826 87.0554 376.826 87.0554C376.826 87.0554 377.198 91.3328 377.233 95.2197L377.411 112.613H373.493V82.6361H377.871L388.4 101.769C390.067 104.751 391.361 108.069 391.361 108.069C391.361 108.069 390.988 103.26 390.953 98.9468L390.811 82.6539H394.551V112.631H390.581V112.613Z" fill="#004994"/>
<path d="M403.095 112.613V82.6539H420.395L419.881 85.6179H406.924V95.4505H417.771V98.5564H406.924V109.525H420.856V112.613H403.095Z" fill="#004994"/>
<path d="M452.655 112.613L450.812 90.6406C450.67 88.7238 450.581 85.5291 450.581 85.5291C450.581 85.5291 449.943 88.28 449.341 90.2501L442.552 112.613H439.326L433.051 91.3328C432.041 87.9606 431.491 85.4758 431.491 85.4758C431.491 85.4758 431.261 89.4514 431.119 91.2795L429.364 112.595H425.713L428.478 82.6183H434.008L439.769 102.195C440.655 105.123 441.01 107.43 441.01 107.43C441.01 107.43 441.417 105.034 442.162 102.532L448.118 82.6006H453.701L456.431 112.577H452.638L452.655 112.613Z" fill="#004994"/>
<path d="M482.097 89.1143C480.981 86.878 478.676 85.0144 475.042 85.0144C472.082 85.0144 469.459 86.3633 468.254 88.5109C467.137 90.4809 466.641 93.0544 466.641 96.7638C466.641 101.272 467.421 105.194 468.679 107.2C469.884 109.117 472.827 110.43 475.415 110.43C478.003 110.43 479.882 109.56 481.317 107.857C482.877 105.975 483.622 103.579 483.622 98.6451C483.622 94.2258 483.161 91.2086 482.097 89.1143ZM483.249 110.306C480.892 112.311 478.499 113.199 475.22 113.199C471.338 113.199 468.342 111.708 466.215 109.401C463.734 106.685 462.44 102.621 462.44 97.5092C462.44 87.9784 467.243 82.1215 475.042 82.1215C480.537 82.1215 483.48 84.8724 485.004 87.02C486.989 89.8242 487.858 93.3206 487.858 98.1127C487.858 103.881 486.475 107.502 483.249 110.306Z" fill="#004994"/>
<path d="M506.647 113.11C503.226 113.11 499.858 111.761 497.412 109.134C494.735 106.259 493.637 102.195 493.637 97.7222C493.637 88.8126 499.273 82.2634 506.931 82.2634C509.979 82.2634 512.745 83.1331 514.907 84.7127L512.886 87.0377C510.99 85.7244 509.199 85.1564 506.877 85.1564C503.226 85.1564 500.603 86.949 499.078 90.3212C498.157 92.3267 497.749 94.7405 497.749 98.2724C497.749 101.148 498.032 102.851 498.759 104.609C500.372 108.371 503.651 110.199 507.25 110.199C509.607 110.199 511.397 109.631 513.436 108.282L515.457 110.678C512.922 112.258 509.784 113.128 506.647 113.128" fill="#004994"/>
<path d="M538.305 112.613L528.148 94.2613C526.11 90.6406 524.55 87.0554 524.55 87.0554C524.55 87.0554 524.922 91.3328 524.957 95.2197L525.135 112.613H521.217V82.6361H525.596L536.107 101.769C537.773 104.751 539.067 108.069 539.067 108.069C539.067 108.069 538.695 103.26 538.659 98.9468L538.517 82.6539H542.258V112.631H538.287L538.305 112.613Z" fill="#004994"/>
<path d="M554.488 82.6539H550.801V112.631H554.488V82.6539Z" fill="#004994"/>
<path d="M574.66 113.11C571.239 113.11 567.871 111.761 565.425 109.134C562.748 106.259 561.649 102.195 561.649 97.7222C561.649 88.8126 567.286 82.2634 574.943 82.2634C577.992 82.2634 580.757 83.1331 582.92 84.7127L580.899 87.0377C579.002 85.7244 577.212 85.1564 574.89 85.1564C571.239 85.1564 568.615 86.949 567.091 90.3212C566.169 92.3267 565.761 94.7405 565.761 98.2724C565.761 101.148 566.045 102.851 566.772 104.609C568.385 108.371 571.664 110.199 575.262 110.199C577.62 110.199 579.41 109.631 581.449 108.282L583.469 110.678C580.934 112.258 577.797 113.128 574.66 113.128" fill="#004994"/>
<path d="M588.787 112.613V82.6539H606.087L605.573 85.6179H592.616V95.4505H603.464V98.5564H592.616V109.525H606.548V112.613H588.787Z" fill="#004994"/>
<path d="M199.677 137.709C198.561 135.473 196.256 133.609 192.623 133.609C189.662 133.609 187.039 134.958 185.834 137.106C184.717 139.076 184.221 141.649 184.221 145.359C184.221 149.867 185.001 153.789 186.259 155.795C187.464 157.712 190.407 159.025 192.995 159.025C195.583 159.025 197.462 158.155 198.897 156.451C200.457 154.57 201.202 152.174 201.202 147.24C201.202 142.821 200.741 139.821 199.677 137.709ZM200.83 158.901C198.472 160.906 196.079 161.776 192.8 161.776C188.918 161.776 185.922 160.285 183.795 157.978C181.296 155.262 180.002 151.198 180.002 146.086C180.002 136.556 184.806 130.699 192.605 130.699C198.1 130.699 201.06 133.45 202.567 135.597C204.552 138.401 205.42 141.898 205.42 146.708C205.42 152.476 204.038 156.096 200.812 158.901" fill="#004994"/>
<path d="M228.393 161.208H212.599V131.249H216.392V158.208H228.889L228.393 161.208Z" fill="#004994"/>
<path d="M250.16 137.709C249.043 135.473 246.738 133.609 243.105 133.609C240.145 133.609 237.521 134.958 236.316 137.106C235.199 139.076 234.703 141.649 234.703 145.359C234.703 149.867 235.483 153.789 236.741 155.795C237.947 157.712 240.889 159.025 243.477 159.025C246.065 159.025 247.944 158.155 249.38 156.451C250.939 154.57 251.684 152.174 251.684 147.24C251.684 142.821 251.223 139.821 250.16 137.709ZM251.312 158.901C248.954 160.906 246.561 161.776 243.282 161.776C239.4 161.776 236.405 160.285 234.277 157.978C231.778 155.262 230.484 151.198 230.484 146.086C230.484 136.556 235.288 130.699 243.087 130.699C248.582 130.699 251.542 133.45 253.049 135.597C255.034 138.401 255.92 141.898 255.92 146.708C255.92 152.476 254.538 156.096 251.312 158.901Z" fill="#004994"/>
<path d="M288.89 161.208L287.046 139.236C286.904 137.319 286.816 134.124 286.816 134.124C286.816 134.124 286.16 136.875 285.575 138.845L278.786 161.208H275.56L269.285 139.928C268.275 136.556 267.725 134.071 267.725 134.071C267.725 134.071 267.495 138.046 267.353 139.892L265.598 161.208H261.947L264.712 131.231H270.242L276.003 150.807C276.872 153.736 277.244 156.043 277.244 156.043C277.244 156.043 277.652 153.647 278.396 151.162L284.352 131.231H289.935L292.665 161.208H288.89Z" fill="#004994"/>
<path d="M318.314 137.709C317.197 135.473 314.893 133.609 311.259 133.609C308.299 133.609 305.676 134.958 304.47 137.106C303.354 139.076 302.857 141.649 302.857 145.359C302.857 149.867 303.637 153.789 304.878 155.795C306.083 157.712 309.026 159.025 311.614 159.025C314.202 159.025 316.081 158.155 317.516 156.451C319.076 154.57 319.821 152.174 319.821 147.24C319.821 142.821 319.36 139.821 318.296 137.709M319.484 158.901C317.126 160.906 314.733 161.776 311.454 161.776C307.572 161.776 304.577 160.285 302.45 157.978C299.968 155.262 298.674 151.198 298.674 146.086C298.674 136.556 303.478 130.699 311.277 130.699C316.772 130.699 319.714 133.45 321.239 135.597C323.224 138.401 324.092 141.898 324.092 146.708C324.092 152.476 322.71 156.096 319.484 158.901Z" fill="#004994"/>
<path d="M349.617 159.433C347.685 161.013 345.133 161.74 341.304 161.74C336.412 161.74 333.646 160.392 331.945 157.41C331.112 155.972 331.023 154.055 331.023 152.742V131.249H334.763V151.429C334.763 152.902 334.905 154.836 335.313 155.759C335.915 157.073 337.617 158.688 341.499 158.688C344.14 158.688 346.107 158.031 347.082 156.806C348.146 155.457 348.288 154.144 348.288 152.139V131.249H352.028V152.565C352.028 156.185 351.514 157.889 349.635 159.415" fill="#004994"/>
<path d="M371.951 161.687C368.53 161.687 365.162 160.338 362.716 157.712C360.04 154.819 358.941 150.772 358.941 146.317C358.941 137.408 364.577 130.858 372.235 130.858C375.284 130.858 378.049 131.728 380.211 133.308L378.191 135.615C376.294 134.302 374.504 133.734 372.199 133.734C368.548 133.734 365.925 135.526 364.4 138.881C363.478 140.886 363.071 143.3 363.071 146.832C363.071 149.725 363.354 151.429 364.081 153.168C365.694 156.931 368.973 158.759 372.572 158.759C374.929 158.759 376.719 158.191 378.758 156.842L380.778 159.238C378.244 160.818 375.106 161.687 371.969 161.687" fill="#004994"/>
<path d="M617.272 75.6078H618.229C619.363 75.6078 619.93 76.1048 619.93 77.0987C619.93 77.6134 619.771 78.0038 619.487 78.27C619.186 78.5363 618.778 78.6783 618.247 78.6783H617.272V75.6078ZM620.125 75.3948C619.665 75.0399 619.026 74.8624 618.211 74.8624H616.385V82.4764H617.254V79.3527H618.707L620.515 82.4764H621.561L619.505 79.0687C619.913 78.8735 620.232 78.6073 620.462 78.2523C620.693 77.8973 620.799 77.5069 620.799 77.0454C620.799 76.3 620.569 75.7498 620.108 75.3948M612.84 81.8907C613.408 82.8846 614.187 83.6833 615.198 84.2867C616.208 84.8902 617.307 85.1919 618.495 85.1919C619.682 85.1919 620.799 84.8902 621.809 84.2867C622.82 83.6833 623.6 82.8846 624.167 81.8907C624.734 80.8968 625 79.8319 625 78.696C625 77.5601 624.716 76.442 624.131 75.4303C623.546 74.4187 622.749 73.62 621.739 73.052C620.728 72.4841 619.647 72.1824 618.495 72.1824C617.343 72.1824 616.244 72.4663 615.233 73.052C614.223 73.6377 613.425 74.4364 612.858 75.4481C612.291 76.4597 611.99 77.5424 611.99 78.696C611.99 79.8497 612.273 80.9146 612.823 81.9085M613.567 75.8208C614.081 74.9334 614.772 74.2412 615.659 73.7265C616.545 73.2118 617.484 72.9633 618.495 72.9633C619.505 72.9633 620.498 73.2295 621.384 73.762C622.27 74.2944 622.962 74.9866 623.458 75.874C623.954 76.7437 624.202 77.6844 624.202 78.696C624.202 79.7077 623.954 80.6838 623.44 81.5535C622.926 82.4232 622.235 83.1153 621.366 83.63C620.498 84.1447 619.541 84.3932 618.512 84.3932C617.484 84.3932 616.545 84.127 615.659 83.63C614.79 83.1153 614.099 82.4232 613.585 81.5535C613.071 80.6838 612.823 79.7254 612.823 78.696C612.823 77.6666 613.088 76.7437 613.585 75.8385" fill="#004994"/>
</g>
</g>
</g>
<defs>
<clipPath id="clip0_412_2490">
<rect width="625" height="166" fill="white"/>
</clipPath>
</defs>
</svg>
