<svg width="23" height="30" viewBox="0 0 23 30" fill="none" xmlns="http://www.w3.org/2000/svg">
<path d="M9.27515 10.4839V10.9355" stroke="black" stroke-width="1.5" stroke-linecap="round" stroke-linejoin="round"/>
<path d="M12.8845 10.4839V10.9355" stroke="black" stroke-width="1.5" stroke-linecap="round" stroke-linejoin="round"/>
<path d="M9.72632 13.1938C9.72632 13.1938 10.2068 13.6455 11.0797 13.6455C11.9527 13.6455 12.4332 13.1938 12.4332 13.1938" stroke="black" stroke-width="1.5" stroke-linecap="round" stroke-linejoin="round"/>
<path d="M17.8469 10.9357C17.8469 10.1871 17.1398 9.58082 16.2679 9.58082C16.2578 9.58082 16.2476 9.58308 16.2375 9.58308C15.5405 7.48638 13.4957 5.96777 11.0798 5.96777C8.66399 5.96777 6.6192 7.48751 5.92219 9.58308C5.91203 9.58308 5.90188 9.58082 5.89173 9.58082C5.01991 9.58082 4.31274 10.1871 4.31274 10.9357C4.31274 11.6843 4.96915 12.2387 5.79587 12.2827C6.33047 14.612 8.49143 16.3553 11.0798 16.3553C13.6683 16.3553 15.8292 14.6109 16.3638 12.2827C17.1905 12.2398 17.8469 11.6561 17.8469 10.9357Z" stroke="black" stroke-width="1.5" stroke-linecap="round" stroke-linejoin="round"/>
<path d="M9.72632 4.16105C9.72632 3.41247 10.332 2.80615 11.0797 2.80615C11.8275 2.80615 12.4332 3.41247 12.4332 4.16105C12.4332 4.90962 11.691 5.69772 9.91467 6.08838" stroke="black" stroke-width="1.5" stroke-linecap="round" stroke-linejoin="round"/>
<path d="M3.86157 22.2264C3.86157 22.2264 11.8919 21.3231 21.3658 11.8389" stroke="black" stroke-width="1.5" stroke-linecap="round" stroke-linejoin="round"/>
<path d="M9.27513 18.5874C6.74424 17.0563 3.84341 14.893 0.793701 11.8389" stroke="black" stroke-width="1.5" stroke-linecap="round" stroke-linejoin="round"/>
<path d="M21.3544 12.3879L20.5266 20.4642C20.0303 25.3136 15.9498 29 11.0809 29C6.21192 29 2.13136 25.3124 1.63511 20.4642L0.807266 12.3879C0.684331 11.1843 0.730573 9.96262 1.03171 8.79177C2.18212 4.31046 6.24463 1 11.0797 1C15.9148 1 19.9773 4.31046 21.1289 8.79177C21.43 9.96262 21.4762 11.1854 21.3533 12.3879H21.3544Z" stroke="black" stroke-width="1.5" stroke-linecap="round" stroke-linejoin="round"/>
</svg>
