<svg width="34" height="30" viewBox="0 0 34 30" fill="none" xmlns="http://www.w3.org/2000/svg">
<path d="M5.04443 24L6.71568 27.3412C7.22442 28.3575 8.26317 29 9.39942 29H23.0456C23.9894 29 24.8794 28.555 25.4456 27.8L30.5456 21" stroke="#999999" stroke-width="1.5" stroke-linecap="round" stroke-linejoin="round"/>
<path d="M18.0444 19.5C17.7694 19.5 17.5444 19.275 17.5444 19C17.5444 18.725 17.7694 18.5 18.0444 18.5C18.3194 18.5 18.5444 18.725 18.5444 19C18.5444 19.275 18.3194 19.5 18.0444 19.5Z" fill="#999999"/>
<path d="M17.0444 3.99999L17.8719 12.69C17.9694 13.7162 18.8319 14.4999 19.8632 14.4999H22.8507C24.5644 14.4999 26.1969 15.2324 27.3356 16.5137L29.0981 18.4962C29.3831 18.8162 29.7906 18.9999 30.2194 18.9999H31.0456C31.8744 18.9999 32.5456 18.3287 32.5456 17.4999C32.5456 8.93997 25.6056 2 17.0457 2" stroke="#999999" stroke-width="1.5" stroke-linecap="round" stroke-linejoin="round"/>
<path d="M13.5144 20.6623C10.6744 20.836 7.00193 21.196 4.0307 21.9398C3.8682 21.9798 3.70445 21.9998 3.54445 21.9998C2.6482 21.9998 1.8332 21.3935 1.60571 20.4848C1.33821 19.4135 1.98945 18.3273 3.0607 18.0598C6.70193 17.1498 11.1432 16.7698 14.2432 16.6123" stroke="#999999" stroke-width="1.5" stroke-linecap="round" stroke-linejoin="round"/>
<path d="M18.0444 16.4999C17.7231 16.4999 17.4181 16.5662 17.1356 16.6762L4.54443 4.08624V2C4.54443 1.4475 4.09693 1 3.54443 1C2.99193 1 2.54443 1.4475 2.54443 2V4.49999C2.54443 4.76498 2.64943 5.01998 2.83693 5.20748L15.7206 18.0912C15.6106 18.3737 15.5444 18.6787 15.5444 18.9999C15.5444 20.3812 16.6631 21.4999 18.0444 21.4999C19.4256 21.4999 20.5444 20.3812 20.5444 18.9999C20.5444 17.6187 19.4256 16.4999 18.0444 16.4999Z" stroke="#999999" stroke-width="1.5" stroke-linecap="round" stroke-linejoin="round"/>
</svg>
