<svg width="151" height="86" viewBox="0 0 151 86" fill="none" xmlns="http://www.w3.org/2000/svg">
<g clip-path="url(#clip0_276_3613)">
<mask id="mask0_276_3613" style="mask-type:luminance" maskUnits="userSpaceOnUse" x="0" y="0" width="151" height="86">
<path d="M151 0H0V86H151V0Z" fill="white"/>
</mask>
<g mask="url(#mask0_276_3613)">
<mask id="mask1_276_3613" style="mask-type:luminance" maskUnits="userSpaceOnUse" x="0" y="0" width="151" height="86">
<path d="M151 0H0V86H151V0Z" fill="white"/>
</mask>
<g mask="url(#mask1_276_3613)">
<path d="M56.5339 11.7427C55.1542 9.45436 52.688 7.39393 49.3096 5.21043C49.1079 5.08279 48.9108 4.95515 48.7137 4.83207C36.7267 -2.76233 32.8762 0.0912711 29.617 3.30955C29.617 3.30955 29.6124 3.31411 29.6078 3.31866C29.6078 3.31866 29.6032 3.31411 29.5986 3.30955C26.7016 6.44121 23.0711 12.1666 21.5217 19.483C21.375 20.2488 22.7044 15.1023 29.6078 15.1023C38.6932 15.1023 43.3092 28.4768 29.1357 53.7581C29.1357 53.7581 29.1357 53.7535 29.1311 53.749V53.8812C29.1311 53.8812 29.1311 53.8812 29.1357 53.8812C29.3832 53.6487 29.5986 53.439 29.7912 53.243C30.5246 52.5319 31.4551 51.5472 31.5927 51.3786C31.7943 51.178 31.9915 50.9774 32.1932 50.7768C32.2527 50.7176 32.3123 50.6538 32.3719 50.5945C37.4051 45.5346 41.6178 41.1357 45.0741 37.2838C56.864 24.1417 59.8665 17.2812 56.5248 11.7473" fill="#AE0F0A"/>
<path d="M28.6178 53.8403V53.8768C28.3702 53.6397 25.4961 50.6539 25.4319 50.5947C20.3988 45.5348 16.1861 41.1359 12.7298 37.284C0.939872 24.1374 -2.06262 17.2769 1.27908 11.7429C2.65885 9.45455 5.12502 7.39412 8.50339 5.21062C8.70509 5.08298 8.9022 4.95534 9.09931 4.82771C21.0863 -2.76214 24.9369 0.0914614 28.1961 3.30974C24.5656 7.23458 19.7845 15.2256 19.3903 25.3226L19.427 25.4046C19.074 30.9523 20.8251 38.729 25.8078 48.7075C26.3258 49.7423 28.3657 53.2979 28.6178 53.7491V53.8449V53.8403Z" fill="#004994"/>
<path d="M11.2674 61.2753H7.27022V64.4662H10.5844V65.419H7.27022V70.0412H6.0188V60.3135H11.46L11.2674 61.2753Z" fill="#004994"/>
<path d="M15.3655 61.3346L13.7382 66.1027H16.9515L15.3655 61.3346ZM18.2488 70.0412L17.2678 67.0509H13.4081L12.4134 70.0412H11.162L14.6183 60.3135H16.2318L19.6561 70.0412H18.2534H18.2488Z" fill="#004994"/>
<path d="M23.8732 64.8811L28.008 70.0458H26.4265L22.4751 64.8993L26.4586 60.318H28.0401L23.8778 64.8856L23.8732 64.8811ZM21.1595 60.3135H22.411V70.0412H21.1595V60.3135Z" fill="#004994"/>
<path d="M35.4707 69.4576C34.8381 69.9681 34.0084 70.2098 32.757 70.2098C31.1572 70.2098 30.2541 69.7721 29.6949 68.8057C29.4244 68.3362 29.3923 67.7117 29.3923 67.2878V60.3088H30.6117V66.8593C30.6117 67.3425 30.6575 67.967 30.7904 68.2633C30.9875 68.6872 31.5468 69.2114 32.812 69.2114C33.6737 69.2114 34.3201 68.9972 34.6364 68.6006C34.9848 68.163 35.0306 67.7345 35.0306 67.0826V60.3042H36.2499V67.2285C36.2499 68.4046 36.0849 68.9562 35.4661 69.453" fill="#004994"/>
<path d="M44.1297 70.0412H38.9728V60.3135H40.2104V69.0612H44.2948L44.1297 70.0412Z" fill="#004994"/>
<path d="M50.3868 61.289H47.5815V70.0412H46.3896V61.289H43.6163V60.3135H50.4648L50.3868 61.289Z" fill="#004994"/>
<path d="M57.1757 70.0412L53.8569 64.0833C53.1922 62.9072 52.6834 61.7448 52.6834 61.7448C52.6834 61.7448 52.8026 63.1352 52.8163 64.3979L52.8759 70.0412H51.5924V60.3135H53.0272L56.4651 66.5267C57.0061 67.4931 57.4324 68.5689 57.4324 68.5689C57.4324 68.5689 57.3132 67.0099 57.2948 65.6059L57.249 60.3135H58.4683V70.0412H57.1711H57.1757Z" fill="#004994"/>
<path d="M61.26 60.3133H62.4656V70.041H61.26V60.3133ZM61.2325 59.7572L60.8383 59.0916L63.9599 57.25L64.6063 58.3395L61.2279 59.7572H61.2325Z" fill="#004994"/>
<path d="M74.3838 70.0412L71.065 64.0833C70.4003 62.9072 69.8869 61.7448 69.8869 61.7448C69.8869 61.7448 70.0061 63.1352 70.0245 64.3979L70.084 70.0412H68.8005V60.3135H70.2353L73.6733 66.5267C74.2188 67.4931 74.6405 68.5689 74.6405 68.5689C74.6405 68.5689 74.5213 67.0099 74.503 65.6059L74.4571 60.3135H75.6811V70.0412H74.3838Z" fill="#004994"/>
<path d="M78.4681 70.0412V60.3135H84.1247L83.9597 61.2753H79.7196V64.4662H83.2675V65.4737H79.7196V69.0338H84.276V70.0412H78.4681Z" fill="#004994"/>
<path d="M94.6678 70.0412L94.0673 62.9072C94.0215 62.2827 93.9894 61.248 93.9894 61.248C93.9894 61.248 93.7785 62.1414 93.5814 62.7796L91.3674 70.0412H90.3131L88.2595 63.1352C87.9294 62.0411 87.7461 61.2343 87.7461 61.2343C87.7461 61.2343 87.6727 62.5243 87.6269 63.1215L87.0539 70.0412H85.8621L86.7651 60.3135H88.5758L90.4598 66.668C90.744 67.6161 90.8677 68.3683 90.8677 68.3683C90.8677 68.3683 91.0053 67.5888 91.2436 66.7819L93.1872 60.3135H95.0116L95.9009 70.0412H94.6632H94.6678Z" fill="#004994"/>
<path d="M104.289 62.4103C103.927 61.6855 103.171 61.0746 101.984 61.0746C101.017 61.0746 100.159 61.5122 99.7651 62.2097C99.403 62.8479 99.238 63.6866 99.238 64.8901C99.238 66.3533 99.4947 67.6297 99.9027 68.2816C100.297 68.9061 101.26 69.33 102.103 69.33C102.946 69.33 103.565 69.0474 104.033 68.4958C104.546 67.885 104.785 67.1055 104.785 65.5009C104.785 64.0695 104.633 63.0895 104.289 62.4103ZM104.665 69.289C103.895 69.9408 103.111 70.2235 102.043 70.2235C100.778 70.2235 99.7972 69.7403 99.1005 68.9881C98.2845 68.1083 97.8628 66.7864 97.8628 65.1317C97.8628 62.041 99.4305 60.1401 101.979 60.1401C103.772 60.1401 104.739 61.0336 105.238 61.731C105.885 62.6382 106.173 63.7732 106.173 65.3322C106.173 67.2058 105.72 68.3818 104.665 69.289Z" fill="#004994"/>
<path d="M112.316 70.1959C111.198 70.1959 110.097 69.7538 109.3 68.9059C108.424 67.9714 108.062 66.6494 108.062 65.2044C108.062 62.3098 109.905 60.1855 112.408 60.1855C113.402 60.1855 114.31 60.4682 115.016 60.9787L114.351 61.7309C113.732 61.3069 113.146 61.12 112.389 61.12C111.198 61.12 110.336 61.699 109.841 62.793C109.538 63.4449 109.405 64.2244 109.405 65.3731C109.405 66.3076 109.497 66.8637 109.735 67.4289C110.262 68.6461 111.335 69.2432 112.509 69.2432C113.279 69.2432 113.865 69.0609 114.53 68.6187L115.195 69.3982C114.365 69.9088 113.338 70.1914 112.316 70.1914" fill="#004994"/>
<path d="M122.662 70.0412L119.343 64.0833C118.679 62.9072 118.165 61.7448 118.165 61.7448C118.165 61.7448 118.284 63.1352 118.303 64.3979L118.362 70.0412H117.079V60.3135H118.514L121.951 66.5267C122.492 67.4931 122.914 68.5689 122.914 68.5689C122.914 68.5689 122.795 67.0099 122.777 65.6059L122.731 60.3135H123.95V70.0412H122.653H122.662Z" fill="#004994"/>
<path d="M127.952 60.3135H126.746V70.0412H127.952V60.3135Z" fill="#004994"/>
<path d="M134.544 70.1959C133.425 70.1959 132.325 69.7538 131.527 68.9059C130.652 67.9714 130.29 66.6494 130.29 65.2044C130.29 62.3098 132.133 60.1855 134.635 60.1855C135.63 60.1855 136.538 60.4682 137.244 60.9787L136.579 61.7309C135.96 61.3069 135.373 61.12 134.617 61.12C133.425 61.12 132.563 61.699 132.068 62.793C131.766 63.4449 131.633 64.2244 131.633 65.3731C131.633 66.3076 131.725 66.8637 131.963 67.4289C132.49 68.6461 133.563 69.2432 134.736 69.2432C135.506 69.2432 136.093 69.0609 136.758 68.6187L137.422 69.3982C136.593 69.9088 135.566 70.1914 134.544 70.1914" fill="#004994"/>
<path d="M139.16 70.0412V60.3135H144.816L144.651 61.2753H140.411V64.4662H143.954V65.4737H140.411V69.0338H144.968V70.0412H139.16Z" fill="#004994"/>
<path d="M11.9916 78.1825C11.6295 77.4578 10.8732 76.8469 9.68133 76.8469C8.7187 76.8469 7.85692 77.2891 7.4627 77.982C7.10057 78.6202 6.93554 79.4589 6.93554 80.6624C6.93554 82.1211 7.19224 83.3974 7.60022 84.0493C7.99444 84.6738 8.95707 85.0977 9.80051 85.0977C10.644 85.0977 11.2628 84.8151 11.7304 84.2635C12.2438 83.6527 12.4821 82.8732 12.4821 81.2686C12.4821 79.8373 12.3309 78.8572 11.9825 78.178M12.3675 85.0658C11.5974 85.7177 10.8136 86.0003 9.74551 86.0003C8.48034 86.0003 7.49937 85.5171 6.80261 84.765C5.98667 83.8852 5.56494 82.5678 5.56494 80.9085C5.56494 77.8179 7.13265 75.917 9.68133 75.917C11.4782 75.917 12.4409 76.8105 12.9405 77.5033C13.5869 78.4105 13.8756 79.5455 13.8756 81.1045C13.8756 82.9781 13.4218 84.1541 12.3675 85.0613" fill="#004994"/>
<path d="M21.3704 85.8132H16.2135V76.0854H17.4466V84.8377H21.5355L21.3704 85.8132Z" fill="#004994"/>
<path d="M28.4893 78.1825C28.1272 77.4578 27.3754 76.8469 26.1836 76.8469C25.2164 76.8469 24.3592 77.2891 23.965 77.982C23.6028 78.6202 23.4378 79.4589 23.4378 80.6624C23.4378 82.1211 23.6945 83.3974 24.1025 84.0493C24.4967 84.6738 25.4593 85.0977 26.3028 85.0977C27.1462 85.0977 27.7651 84.8151 28.2326 84.2635C28.746 83.6527 28.989 82.8732 28.989 81.2686C28.989 79.8373 28.8377 78.8572 28.4893 78.178M28.8652 85.0658C28.0951 85.7177 27.3112 86.0003 26.2432 86.0003C24.978 86.0003 23.9971 85.5171 23.3003 84.765C22.4843 83.8852 22.0626 82.5678 22.0626 80.9085C22.0626 77.8179 23.6303 75.917 26.179 75.917C27.9759 75.917 28.9386 76.8105 29.4382 77.5033C30.0845 78.4105 30.3733 79.5455 30.3733 81.1045C30.3733 82.9781 29.9195 84.1541 28.8652 85.0613" fill="#004994"/>
<path d="M41.141 85.8132L40.5359 78.6792C40.4901 78.0547 40.458 77.0199 40.458 77.0199C40.458 77.0199 40.2471 77.9134 40.05 78.5516L37.8314 85.8132H36.7771L34.7235 78.9071C34.3934 77.8131 34.2101 77.0063 34.2101 77.0063C34.2101 77.0063 34.1321 78.2963 34.0909 78.8935L33.5179 85.8132H32.326L33.2291 76.0854H35.0398L36.9238 82.4399C37.208 83.3927 37.3317 84.1403 37.3317 84.1403C37.3317 84.1403 37.4692 83.3608 37.7076 82.5539L39.6512 76.0854H41.4756L42.3649 85.8132H41.1272H41.141Z" fill="#004994"/>
<path d="M50.7627 78.1825C50.4006 77.4578 49.6442 76.8469 48.457 76.8469C47.4898 76.8469 46.6326 77.2891 46.2383 77.982C45.8762 78.6202 45.7112 79.4589 45.7112 80.6624C45.7112 82.1211 45.9679 83.3974 46.3758 84.0493C46.7701 84.6738 47.7327 85.0977 48.5761 85.0977C49.4196 85.0977 50.0384 84.8151 50.506 84.2635C51.0194 83.6527 51.2578 82.8732 51.2578 81.2686C51.2578 79.8373 51.1065 78.8572 50.7581 78.178M51.1432 85.0658C50.3731 85.7177 49.5892 86.0003 48.5211 86.0003C47.256 86.0003 46.275 85.5171 45.5782 84.765C44.7623 83.8852 44.3406 82.5678 44.3406 80.9085C44.3406 77.8179 45.9083 75.917 48.457 75.917C50.2539 75.917 51.2165 76.8105 51.7162 77.5033C52.3625 78.4105 52.6513 79.5455 52.6513 81.1045C52.6513 82.9781 52.1975 84.1541 51.1432 85.0613" fill="#004994"/>
<path d="M60.9896 85.2345C60.357 85.745 59.5273 85.9866 58.2759 85.9866C56.6761 85.9866 55.773 85.549 55.2138 84.5826C54.9433 84.1176 54.9113 83.4931 54.9113 83.0646V76.0856H56.1352V82.6361C56.1352 83.1193 56.181 83.7438 56.3139 84.0401C56.5111 84.4641 57.0703 84.9883 58.3355 84.9883C59.1927 84.9883 59.8436 84.7741 60.1599 84.3775C60.5037 83.9399 60.5495 83.5114 60.5495 82.8595V76.0811H61.7734V83.0008C61.7734 84.1769 61.6084 84.733 60.9896 85.2253" fill="#004994"/>
<path d="M68.2917 85.9684C67.1778 85.9684 66.0731 85.5308 65.2755 84.6784C64.4 83.7439 64.0378 82.4219 64.0378 80.9769C64.0378 78.0823 65.876 75.958 68.3834 75.958C69.3781 75.958 70.2858 76.2406 70.9917 76.7512L70.327 77.5033C69.7082 77.0794 69.1214 76.8925 68.3651 76.8925C67.1733 76.8925 66.3115 77.4714 65.8164 78.5655C65.5139 79.2173 65.3809 79.9968 65.3809 81.1455C65.3809 82.08 65.4726 82.6362 65.711 83.2014C66.2381 84.4185 67.3108 85.0157 68.4889 85.0157C69.259 85.0157 69.8457 84.8333 70.5104 84.3912L71.1751 85.1707C70.3454 85.6812 69.3186 85.9638 68.2963 85.9638" fill="#004994"/>
<path d="M148.47 58.025H148.781C149.153 58.025 149.341 58.1846 149.341 58.5082C149.341 58.6769 149.29 58.8 149.194 58.8866C149.098 58.9732 148.96 59.0188 148.791 59.0188H148.474V58.025H148.47ZM149.405 57.9612C149.258 57.8427 149.047 57.788 148.777 57.788H148.181V60.2587H148.465V59.2467H148.942L149.538 60.2587H149.882L149.212 59.1555C149.345 59.0917 149.451 59.0051 149.524 58.8911C149.597 58.7772 149.634 58.6495 149.634 58.4991C149.634 58.2575 149.561 58.0797 149.409 57.9612M147.026 60.0672C147.209 60.3909 147.466 60.6507 147.796 60.8422C148.126 61.0382 148.484 61.1339 148.873 61.1339C149.263 61.1339 149.625 61.0336 149.955 60.8422C150.285 60.6461 150.542 60.3863 150.725 60.0627C150.908 59.739 151 59.3926 151 59.0233C151 58.6541 150.904 58.2894 150.716 57.9658C150.523 57.6376 150.267 57.3823 149.937 57.1908C149.607 57.0039 149.254 56.9082 148.878 56.9082C148.502 56.9082 148.14 57.0039 147.814 57.1908C147.484 57.3823 147.228 57.6376 147.04 57.9658C146.852 58.294 146.755 58.645 146.755 59.0188C146.755 59.3926 146.847 59.739 147.03 60.0627M147.26 58.098C147.429 57.8108 147.654 57.5829 147.943 57.4142C148.231 57.2501 148.539 57.168 148.869 57.168C149.199 57.168 149.524 57.2546 149.813 57.4279C150.102 57.6011 150.326 57.829 150.487 58.1116C150.647 58.3943 150.73 58.6997 150.73 59.0233C150.73 59.347 150.647 59.6661 150.478 59.9487C150.313 60.2313 150.083 60.4592 149.799 60.6234C149.515 60.7875 149.203 60.8741 148.869 60.8741C148.534 60.8741 148.222 60.792 147.933 60.6234C147.649 60.4547 147.42 60.2313 147.255 59.9487C147.09 59.6661 147.007 59.3561 147.007 59.0233C147.007 58.6906 147.09 58.3851 147.26 58.098Z" fill="#004994"/>
</g>
</g>
</g>
<defs>
<clipPath id="clip0_276_3613">
<rect width="151" height="86" fill="white"/>
</clipPath>
</defs>
</svg>
