<svg width="90" height="84" viewBox="0 0 90 84" fill="none" xmlns="http://www.w3.org/2000/svg">
<path d="M87.613 18.2993C85.4753 14.7371 81.6506 11.5237 76.4227 8.12139C76.11 7.91783 75.8046 7.72154 75.4992 7.52525C56.9142 -4.30298 50.9519 0.138965 45.9057 5.16251C45.9057 5.16251 45.8984 5.16978 45.8911 5.17705C45.8911 5.17705 45.8839 5.16978 45.8766 5.16251C41.3903 10.0407 35.7552 18.9609 33.3557 30.3602C33.1303 31.5525 35.188 23.5337 45.8911 23.5337C59.9681 23.5337 67.1302 44.3694 45.164 83.7654C45.164 83.7654 45.164 83.7581 45.1568 83.7508V83.9544C45.1568 83.9544 45.1568 83.9544 45.164 83.9544C45.5421 83.5909 45.8839 83.2638 46.182 82.9584C47.3163 81.8534 48.7632 80.3121 48.9741 80.0504C49.2868 79.7378 49.5922 79.4252 49.9048 79.1126C49.9993 79.0181 50.0939 78.9236 50.1884 78.8291C57.9831 70.9412 64.5198 64.0929 69.8786 58.0879C88.151 37.6084 92.7973 26.9215 87.6202 18.2993" fill="#004994"/>
<path d="M44.3495 83.8889V83.947C43.9641 83.5763 39.5069 78.9235 39.4124 78.8362C31.6177 70.9483 25.0882 64.1 19.7221 58.095C1.457 37.6083 -3.19653 26.9214 1.98052 18.2992C4.11824 14.737 7.94286 11.5236 13.1708 8.12129C13.4835 7.91773 13.7889 7.72144 14.0943 7.52515C32.6793 -4.30308 38.6489 0.138866 43.6951 5.15514C38.0672 11.2692 30.6579 23.7226 30.0471 39.4476L30.1053 39.5712C29.56 48.2151 32.2721 60.3342 39.9941 75.8774C40.7939 77.4913 43.9568 83.031 44.3495 83.7289V83.8743V83.8889Z" fill="#004994"/>
</svg>
