<svg width="30" height="30" viewBox="0 0 30 30" fill="none" xmlns="http://www.w3.org/2000/svg">
<path d="M15.0346 11.8387C15.5334 11.8387 15.9378 11.4343 15.9378 10.9355C15.9378 10.4366 15.5334 10.0322 15.0346 10.0322C14.5357 10.0322 14.1313 10.4366 14.1313 10.9355C14.1313 11.4343 14.5357 11.8387 15.0346 11.8387Z" stroke="#E31F7E" stroke-width="1.5" stroke-linecap="round" stroke-linejoin="round"/>
<path d="M1.03467 20.4194L3.5366 23.1619C3.92047 23.5265 4.52676 23.5119 4.89257 23.1291C5.25838 22.7464 5.27305 22.1344 4.81015 21.6456" stroke="#E31F7E" stroke-width="1.5" stroke-linecap="round" stroke-linejoin="round"/>
<path d="M5.55113 17.2582L9.29613 20.7435C9.64162 21.072 10.1824 21.1387 10.5708 20.8609C11.0811 20.4962 11.0936 19.8098 10.6656 19.4022L5.55226 14.5496H7.77758C8.29242 14.5372 8.70113 14.054 8.68871 13.5403C8.67742 13.0491 8.28678 12.6517 7.79565 12.6314L6.83146 12.5885C5.83339 12.5456 4.85678 12.2938 3.96258 11.849C2.9442 11.2766 1.665 10.2356 1.03613 9.58301" stroke="#E31F7E" stroke-width="1.5" stroke-linecap="round" stroke-linejoin="round"/>
<path d="M4.10107 18.4131L8.49753 22.5928C8.8814 22.9574 9.48769 22.9428 9.85349 22.56C10.2193 22.1773 10.2046 21.5721 9.82075 21.2074L8.87801 20.3449" stroke="#E31F7E" stroke-width="1.5" stroke-linecap="round" stroke-linejoin="round"/>
<path d="M7.8033 21.9324C8.18717 22.297 8.20072 22.9022 7.83604 23.285C7.47137 23.6677 6.86395 23.6812 6.48008 23.3177L2.44604 19.2803" stroke="#E31F7E" stroke-width="1.5" stroke-linecap="round" stroke-linejoin="round"/>
<path d="M29.0345 20.4194L26.5325 23.1619C26.1487 23.5265 25.5424 23.5119 25.1766 23.1291C24.8108 22.7464 24.7961 22.1344 25.259 21.6456" stroke="#E31F7E" stroke-width="1.5" stroke-linecap="round" stroke-linejoin="round"/>
<path d="M24.5185 17.2582L20.7735 20.7435C20.428 21.072 19.8872 21.1387 19.4988 20.8609C18.9885 20.4962 18.9761 19.8098 19.404 19.4022L24.5173 14.5496H22.292C21.7772 14.5372 21.3685 14.054 21.3809 13.5403C21.3922 13.0491 21.7828 12.6517 22.274 12.6314L23.2381 12.5885C24.2362 12.5456 25.2128 12.2938 26.107 11.849C27.1254 11.2766 28.4046 10.2356 29.0335 9.58301" stroke="#E31F7E" stroke-width="1.5" stroke-linecap="round" stroke-linejoin="round"/>
<path d="M25.9681 18.4131L21.5717 22.5928C21.1878 22.9574 20.5815 22.9428 20.2157 22.56C19.8499 22.1773 19.8646 21.5721 20.2485 21.2074L21.1912 20.3449" stroke="#E31F7E" stroke-width="1.5" stroke-linecap="round" stroke-linejoin="round"/>
<path d="M22.2661 21.9324C21.8822 22.297 21.8687 22.9022 22.2334 23.285C22.598 23.6677 23.2055 23.6812 23.5893 23.3177L27.6234 19.2803" stroke="#E31F7E" stroke-width="1.5" stroke-linecap="round" stroke-linejoin="round"/>
<path d="M26.5327 23.1616C23.9631 26.2461 19.3634 28.9998 15.0347 28.9998C10.706 28.9998 6.10517 26.2461 3.53662 23.1616" stroke="#E31F7E" stroke-width="1.5" stroke-linecap="round" stroke-linejoin="round"/>
<path d="M27.3445 8.32629C24.9747 3.96258 20.3502 1 15.0347 1C9.71921 1 5.09469 3.96258 2.72485 8.32629" stroke="#E31F7E" stroke-width="1.5" stroke-linecap="round" stroke-linejoin="round"/>
</svg>
